<?xml version="1.0" encoding="utf-8"?>
<!-- Generator: Adobe Illustrator 21.1.0, SVG Export Plug-In . SVG Version: 6.00 Build 0)  -->
<svg version="1.1" id="Layer_1" xmlns="http://www.w3.org/2000/svg" xmlns:xlink="http://www.w3.org/1999/xlink" x="0px" y="0px"
	 viewBox="0 0 64.2 64.2" style="enable-background:new 0 0 64.2 64.2;" xml:space="preserve">
<style type="text/css">
	.st0{fill:none;stroke:#000000;stroke-width:3;stroke-miterlimit:10;}
</style>
<g>
	<circle class="st0" cx="32.1" cy="32.1" r="30.6"/>
	<path d="M44.4,11.5c-7.3,7.6-13.3,8.1-19.6,11.3c-13.8,7-5.8,16.9-1.1,21.3C19,47,13.4,49,13.4,49l4.2,3.8c2.9-0.9,6.6-4.3,9.4-7.2
		c1.3-1.2,2.6-2.7,3.9-4.3c0,0,0,0,0,0h0c4.4-5.5,8.2-12,8.2-12C37.7,38,33,42.8,28.8,47.2C61.3,59.8,44.4,11.5,44.4,11.5z"/>
</g>
</svg>
