<svg width="100.2" height="100.2" xmlns="http://www.w3.org/2000/svg">
 <style type="text/css">.st0{fill:none;stroke:#000000;stroke-width:3;stroke-miterlimit:10;}
	.st1{fill:none;stroke:#FFFFFF;stroke-width:2.6683;stroke-miterlimit:10;}</style>

 <g>
  <title>background</title>
  <rect fill="none" id="canvas_background" height="102.2" width="102.2" y="-1" x="-1"/>
 </g>
 <g>
  <title>Layer 1</title>
  <g stroke="null" id="svg_1">
   <circle stroke="null" id="svg_2" r="46.599823" cy="50.099999" cx="50.099999" class="st0"/>
   <line stroke="null" id="svg_3" y2="62.73982" x2="38.526186" y1="83.146279" x1="17.358292" class="st0"/>
   <line stroke="null" id="svg_4" y2="17.358292" x2="84.212288" y1="42.790222" x1="57.866636" class="st0"/>
   <path stroke="null" id="svg_5" d="m60.455515,26.190938l-20.101885,0c0,0 -6.243767,8.984933 -6.243767,23.452199l0.152287,0l0,27.563948c0,3.502601 3.502601,6.396054 7.766637,6.396054l16.599284,0c4.264036,0 7.766637,-2.893453 7.766637,-6.396054l0,-27.411661c-0.152287,-2.893453 0.304574,-12.792109 -5.939193,-23.604486z"/>
   <path stroke="null" id="svg_6" d="m60.455515,26.190938l-20.101885,0c0,0 -6.243767,8.984933 -6.243767,23.452199l0.152287,0l0,27.563948c0,3.502601 3.502601,6.396054 7.766637,6.396054l16.599284,0c4.264036,0 7.766637,-2.893453 7.766637,-6.396054l0,-27.411661c-0.152287,-2.893453 0.304574,-12.792109 -5.939193,-23.604486z" class="st1"/>
   <path stroke="null" id="svg_7" d="m61.673811,18.728875l0,3.502601c0,1.52287 -1.218296,2.741166 -2.741166,2.741166l-17.513006,0c-1.52287,0 -2.741166,-1.218296 -2.741166,-2.741166l0,-3.502601c0,-1.52287 1.218296,-2.741166 2.741166,-2.741166l17.513006,0c1.52287,0 2.741166,1.218296 2.741166,2.741166z"/>
  </g>
 </g>
</svg>