<?xml version="1.0" encoding="utf-8"?>
<!-- Generator: Adobe Illustrator 21.1.0, SVG Export Plug-In . SVG Version: 6.00 Build 0)  -->
<svg version="1.1" id="Layer_1" xmlns="http://www.w3.org/2000/svg" xmlns:xlink="http://www.w3.org/1999/xlink" x="0px" y="0px"
	 viewBox="0 0 64.2 64.2" style="enable-background:new 0 0 64.2 64.2;" xml:space="preserve">
<style type="text/css">
	.st0{fill:none;stroke:#000000;stroke-width:3;stroke-miterlimit:10;}
	.st1{fill:none;stroke:#FFFFFF;stroke-width:3;stroke-miterlimit:10;}
</style>
<g>
	<circle class="st0" cx="32.1" cy="32.1" r="30.6"/>
	<line class="st0" x1="10.6" y1="53.8" x2="20" y2="44.8"/>
	<line class="st0" x1="37.2" y1="27.3" x2="54.5" y2="10.6"/>
	<g>
		<path class="st1" d="M48.2,26.1C47.1,21,42.7,16.9,37,15.3c-2-0.5-3.4-2.3-3.5-4.4l0-3.2c0-0.7-0.5-1.4-1.3-1.5
			c-0.9-0.1-1.7,0.6-1.7,1.5l0,3.2c0,2.1-1.4,3.9-3.4,4.4c-5.7,1.5-10,5.7-11.1,10.8c-0.3,1.3,0.7,2.5,2,2.5l28.1,0
			C47.5,28.6,48.5,27.4,48.2,26.1z"/>
		<path class="st1" d="M45.4,30.2l-23.1,0c-1.8,16.4,5.2,23.2,5.2,23.2c-9.5-7.7-8.4-20.3-8-23.2l-0.7,0c-1.1,0-1.9,0.9-1.9,1.9
			l0,5.1c0.3,8.6,4.9,15.8,11,18.1c1.4,0.5,2.7,1.3,3.8,2.3c0.1,0.1,0.3,0.3,0.5,0.4c0.2-0.1,0.3-0.2,0.5-0.4c1.1-1,2.4-1.8,3.8-2.3
			c6.2-2.3,10.7-9.5,11-18.1l0-5.1C47.4,31,46.5,30.2,45.4,30.2z"/>
	</g>
	<g>
		<path d="M48.1,26.1C47,21,42.6,16.9,36.9,15.3c-2-0.5-3.4-2.3-3.5-4.4l0-3.2c0-0.7-0.5-1.4-1.3-1.5c-0.9-0.1-1.7,0.6-1.7,1.5
			l0,3.2c0,2.1-1.4,3.9-3.4,4.4c-5.7,1.5-10,5.7-11.1,10.8c-0.3,1.3,0.7,2.5,2,2.5l28.1,0C47.4,28.6,48.4,27.4,48.1,26.1z"/>
		<path d="M45.3,30.2l-23.1,0c-1.8,16.4,5.2,23.2,5.2,23.2c-9.5-7.7-8.4-20.3-8-23.2l-0.7,0c-1.1,0-1.9,0.9-1.9,1.9l0,5.1
			c0.3,8.6,4.9,15.8,11,18.1c1.4,0.5,2.7,1.3,3.8,2.3c0.1,0.1,0.3,0.3,0.5,0.4c0.2-0.1,0.3-0.2,0.5-0.4c1.1-1,2.4-1.8,3.8-2.3
			c6.2-2.3,10.7-9.5,11-18.1l0-5.1C47.3,31,46.4,30.2,45.3,30.2z"/>
	</g>
</g>
</svg>
