<?xml version="1.0" encoding="utf-8"?>
<!-- Generator: Adobe Illustrator 21.1.0, SVG Export Plug-In . SVG Version: 6.00 Build 0)  -->
<svg version="1.1" id="Layer_1" xmlns="http://www.w3.org/2000/svg" xmlns:xlink="http://www.w3.org/1999/xlink" x="0px" y="0px"
	 viewBox="0 0 61.2 61.2" style="enable-background:new 0 0 61.2 61.2;" xml:space="preserve">
<style type="text/css">
	.st0{fill:#60605F;}
	.st1{fill:none;stroke:#FFFFFF;stroke-width:3;stroke-miterlimit:10;}
	.st2{fill:#FFFFFF;}
	.st3{fill:none;stroke:#60605F;stroke-width:3;stroke-miterlimit:10;}
</style>
<circle class="st0" cx="30.6" cy="30.6" r="30.6"/>
<line class="st1" x1="9.1" y1="52.3" x2="23" y2="38.9"/>
<line class="st1" x1="35.7" y1="25.7" x2="53" y2="9.1"/>
<path class="st2" d="M37.4,15H24.2c0,0-4.1,5.9-4.1,15.4l0,0v18.1c0,2.3,2.3,4.2,5.1,4.2h10.9c2.8,0,5.1-1.9,5.1-4.2v-18
	C41.2,28.7,41.5,22.2,37.4,15z"/>
<path class="st3" d="M37.4,15H24.2c0,0-4.1,5.9-4.1,15.4l0,0v18.1c0,2.3,2.3,4.2,5.1,4.2h10.9c2.8,0,5.1-1.9,5.1-4.2v-18
	C41.2,28.7,41.5,22.2,37.4,15z"/>
<path class="st2" d="M38.2,10.2v2.3c0,1-0.8,1.8-1.8,1.8H24.9c-1,0-1.8-0.8-1.8-1.8v-2.3c0-1,0.8-1.8,1.8-1.8h11.5
	C37.4,8.4,38.2,9.2,38.2,10.2z"/>
</svg>
