<?xml version="1.0" encoding="utf-8"?>
<!-- Generator: Adobe Illustrator 21.1.0, SVG Export Plug-In . SVG Version: 6.00 Build 0)  -->
<svg version="1.1" id="Layer_1" xmlns="http://www.w3.org/2000/svg" xmlns:xlink="http://www.w3.org/1999/xlink" x="0px" y="0px"
	 viewBox="0 0 61.2 61.2" style="enable-background:new 0 0 61.2 61.2;" xml:space="preserve">
<style type="text/css">
	.st0{fill:#60605F;}
	.st1{fill:none;stroke:#FFFFFF;stroke-width:3;stroke-miterlimit:10;}
	.st2{fill:#60605F;stroke:#60605F;stroke-width:3;stroke-miterlimit:10;}
	.st3{fill:#FFFFFF;}
</style>
<circle class="st0" cx="30.6" cy="30.6" r="30.6"/>
<line class="st1" x1="9.1" y1="52.3" x2="18.4" y2="43.3"/>
<line class="st1" x1="40.1" y1="21.8" x2="52.9" y2="9.1"/>
<g>
	<path class="st2" d="M35.9,6.1c-9.3,6.8-3.2,16.1-3.2,16.1C41.9,15.4,35.9,6.1,35.9,6.1z"/>
	<g>
		<path class="st2" d="M21.5,16.4c-2,11.3,8.8,13.8,8.8,13.8C32.3,18.9,21.5,16.4,21.5,16.4z"/>
		<path class="st2" d="M45.2,21.2c-2.5,11.2-13.5,9.4-13.5,9.4C34.3,19.3,45.2,21.2,45.2,21.2z"/>
		<path class="st2" d="M19.3,27c-2,11.3,8.8,13.8,8.8,13.8C30.1,29.5,19.3,27,19.3,27z"/>
		<path class="st2" d="M43.1,31.7c-2.5,11.2-13.5,9.4-13.5,9.4C32.1,29.9,43.1,31.7,43.1,31.7z"/>
		<path class="st2" d="M17.3,36.9c-2,11.3,8.8,13.8,8.8,13.8C28.1,39.5,17.3,36.9,17.3,36.9z"/>
		<path class="st2" d="M41.1,41.7c-2.5,11.2-13.5,9.4-13.5,9.4C30.1,39.9,41.1,41.7,41.1,41.7z"/>
	</g>
</g>
<g>
	<path class="st3" d="M35.9,6.1c-9.3,6.8-3.2,16.1-3.2,16.1C41.9,15.4,35.9,6.1,35.9,6.1z"/>
	<g>
		<path class="st3" d="M21.4,16.4c-2,11.3,8.8,13.8,8.8,13.8C32.2,18.9,21.4,16.4,21.4,16.4z"/>
		<path class="st3" d="M45.2,21.2c-2.5,11.2-13.5,9.4-13.5,9.4C34.2,19.3,45.2,21.2,45.2,21.2z"/>
		<path class="st3" d="M19.3,27c-2,11.3,8.8,13.8,8.8,13.8C30.1,29.5,19.3,27,19.3,27z"/>
		<path class="st3" d="M43.1,31.7c-2.5,11.2-13.5,9.4-13.5,9.4C32.1,29.9,43.1,31.7,43.1,31.7z"/>
		<path class="st3" d="M17.3,36.9c-2,11.3,8.8,13.8,8.8,13.8C28.1,39.5,17.3,36.9,17.3,36.9z"/>
		<path class="st3" d="M41.1,41.7c-2.5,11.2-13.5,9.4-13.5,9.4C30.1,39.9,41.1,41.7,41.1,41.7z"/>
	</g>
</g>
</svg>
