<?xml version="1.0" encoding="utf-8"?>
<!-- Generator: Adobe Illustrator 21.1.0, SVG Export Plug-In . SVG Version: 6.00 Build 0)  -->
<svg version="1.1" id="Layer_1" xmlns="http://www.w3.org/2000/svg" xmlns:xlink="http://www.w3.org/1999/xlink" x="0px" y="0px"
	 viewBox="0 0 61.2 61.2" style="enable-background:new 0 0 61.2 61.2;" xml:space="preserve">
<style type="text/css">
	.st0{fill:#60605F;}
	.st1{fill:none;stroke:#FFFFFF;stroke-width:3;stroke-miterlimit:10;}
	.st2{fill:none;stroke:#60605F;stroke-width:3;stroke-miterlimit:10;}
	.st3{fill:#FFFFFF;}
</style>
<circle class="st0" cx="30.6" cy="30.6" r="30.6"/>
<line class="st1" x1="7.5" y1="53.9" x2="18.5" y2="43.3"/>
<line class="st1" x1="35.6" y1="25.7" x2="53" y2="9.1"/>
<g>
	<path class="st2" d="M46.7,24.5c-1.1-5.1-5.5-9.2-11.2-10.7c-2-0.5-3.4-2.3-3.5-4.4V6.2c0-0.7-0.5-1.4-1.3-1.5
		C29.8,4.6,29,5.3,29,6.2v3.2c0,2.1-1.4,3.9-3.4,4.4c-5.7,1.5-10,5.7-11.1,10.8c-0.3,1.3,0.7,2.5,2,2.5h28.1
		C46,27.1,46.9,25.8,46.7,24.5z"/>
	<path class="st2" d="M43.9,28.6H20.8C19,45,26,51.8,26,51.8c-9.5-7.7-8.4-20.3-8-23.2h-0.7c-1.1,0-1.9,0.9-1.9,1.9v5.1
		c0.3,8.6,4.9,15.8,11,18.1c1.4,0.5,2.7,1.3,3.8,2.3c0.1,0.1,0.3,0.3,0.5,0.4c0.2-0.1,0.3-0.2,0.5-0.4c1.1-1,2.4-1.8,3.8-2.3
		c6.2-2.3,10.7-9.5,11-18.1v-5.1C45.9,29.5,45,28.6,43.9,28.6z"/>
</g>
<g>
	<path class="st3" d="M46.7,24.5c-1.1-5.1-5.5-9.2-11.2-10.7c-2-0.5-3.4-2.3-3.5-4.4V6.2c0-0.7-0.5-1.4-1.3-1.5
		C29.8,4.6,29,5.3,29,6.2v3.2c0,2.1-1.4,3.9-3.4,4.4c-5.7,1.5-10,5.7-11.1,10.8c-0.3,1.3,0.7,2.5,2,2.5h28.1
		C46,27.1,47,25.8,46.7,24.5z"/>
	<path class="st3" d="M43.9,28.6H20.8C19,45,26,51.8,26,51.8c-9.5-7.7-8.4-20.3-8-23.2h-0.7c-1.1,0-1.9,0.9-1.9,1.9v5.1
		c0.3,8.6,4.9,15.8,11,18.1c1.4,0.5,2.7,1.3,3.8,2.3c0.1,0.1,0.3,0.3,0.5,0.4c0.2-0.1,0.3-0.2,0.5-0.4c1.1-1,2.4-1.8,3.8-2.3
		c6.2-2.3,10.7-9.5,11-18.1v-5.1C45.9,29.5,45,28.6,43.9,28.6z"/>
</g>
</svg>
