<?xml version="1.0" encoding="utf-8"?>
<!-- Generator: Adobe Illustrator 21.1.0, SVG Export Plug-In . SVG Version: 6.00 Build 0)  -->
<svg version="1.1" id="Layer_1" xmlns="http://www.w3.org/2000/svg" xmlns:xlink="http://www.w3.org/1999/xlink" x="0px" y="0px"
	 viewBox="0 0 61.2 61.2" style="enable-background:new 0 0 61.2 61.2;" xml:space="preserve">
<style type="text/css">
	.st0{fill:#60605F;}
	.st1{fill:#FFFFFF;}
</style>
<circle class="st0" cx="30.6" cy="30.6" r="30.6"/>
<path class="st1" d="M42.9,9.9c-7.3,7.6-13.3,8.1-19.6,11.3c-13.8,7-5.8,16.9-1.1,21.3c-4.8,2.9-10.3,5-10.3,5l4.2,3.8
	c2.9-0.9,6.6-4.3,9.4-7.2c1.3-1.2,2.6-2.7,3.9-4.3l0,0l0,0c4.4-5.5,8.2-12,8.2-12c-1.5,8.7-6.1,13.5-10.4,17.9
	C59.8,58.3,42.9,9.9,42.9,9.9z"/>
</svg>
