<?xml version="1.0" encoding="utf-8"?>
<!-- Generator: Adobe Illustrator 21.1.0, SVG Export Plug-In . SVG Version: 6.00 Build 0)  -->
<svg version="1.1" id="Layer_1" xmlns="http://www.w3.org/2000/svg" xmlns:xlink="http://www.w3.org/1999/xlink" x="0px" y="0px"
	 viewBox="0 0 64.2 64.2" style="enable-background:new 0 0 64.2 64.2;" xml:space="preserve">
<style type="text/css">
	.st0{fill:none;stroke:#000000;stroke-width:3;stroke-miterlimit:10;}
	.st1{fill:none;stroke:#FFFFFF;stroke-width:2.6683;stroke-miterlimit:10;}
</style>
<g>
	<circle class="st0" cx="32.1" cy="32.1" r="30.6"/>
	<line class="st0" x1="10.6" y1="53.8" x2="24.5" y2="40.4"/>
	<line class="st0" x1="37.2" y1="27.3" x2="54.5" y2="10.6"/>
	<path d="M38.9,16.4H25.7c0,0-4.1,5.9-4.1,15.4h0.1v18.1c0,2.3,2.3,4.2,5.1,4.2h10.9c2.8,0,5.1-1.9,5.1-4.2l0-18
		C42.7,30,43,23.5,38.9,16.4z"/>
	<path class="st1" d="M38.9,16.4H25.7c0,0-4.1,5.9-4.1,15.4h0.1v18.1c0,2.3,2.3,4.2,5.1,4.2h10.9c2.8,0,5.1-1.9,5.1-4.2l0-18
		C42.7,30,43,23.5,38.9,16.4z"/>
	<path d="M39.7,11.5v2.3c0,1-0.8,1.8-1.8,1.8H26.4c-1,0-1.8-0.8-1.8-1.8v-2.3c0-1,0.8-1.8,1.8-1.8h11.5
		C38.9,9.7,39.7,10.5,39.7,11.5z"/>
</g>
</svg>
