<?xml version="1.0" encoding="utf-8"?>
<!-- Generator: Adobe Illustrator 21.1.0, SVG Export Plug-In . SVG Version: 6.00 Build 0)  -->
<svg version="1.1" id="Layer_1" xmlns="http://www.w3.org/2000/svg" xmlns:xlink="http://www.w3.org/1999/xlink" x="0px" y="0px"
	 viewBox="0 0 64.2 64.2" style="enable-background:new 0 0 64.2 64.2;" xml:space="preserve">
<style type="text/css">
	.st0{fill:none;stroke:#000000;stroke-width:3;stroke-miterlimit:10;}
	.st1{stroke:#FFFFFF;stroke-width:3;stroke-miterlimit:10;}
</style>
<g>
	<circle class="st0" cx="32.1" cy="32.1" r="30.6"/>
	<line class="st0" x1="10.6" y1="53.8" x2="20" y2="44.8"/>
	<line class="st0" x1="41.6" y1="23.3" x2="54.5" y2="10.6"/>
	<g>
		<path class="st1" d="M37.4,7.6c-9.3,6.8-3.2,16.1-3.2,16.1C43.5,17,37.4,7.6,37.4,7.6z"/>
		<g>
			<path class="st1" d="M23,17.9c-2,11.3,8.8,13.8,8.8,13.8C33.8,20.5,23,17.9,23,17.9z"/>
			<path class="st1" d="M46.8,22.7c-2.5,11.2-13.5,9.4-13.5,9.4C35.8,20.9,46.8,22.7,46.8,22.7z"/>
			<path class="st1" d="M20.9,28.5c-2,11.3,8.8,13.8,8.8,13.8C31.7,31,20.9,28.5,20.9,28.5z"/>
			<path class="st1" d="M44.7,33.3c-2.5,11.2-13.5,9.4-13.5,9.4C33.7,31.4,44.7,33.3,44.7,33.3z"/>
			<path class="st1" d="M18.9,38.5c-2,11.3,8.8,13.8,8.8,13.8C29.7,41,18.9,38.5,18.9,38.5z"/>
			<path class="st1" d="M42.6,43.3c-2.5,11.2-13.5,9.4-13.5,9.4C31.7,41.4,42.6,43.3,42.6,43.3z"/>
		</g>
	</g>
	<g>
		<path d="M37.3,7.2C28,14,34.1,23.3,34.1,23.3C43.3,16.5,37.3,7.2,37.3,7.2z"/>
		<g>
			<path d="M22.9,17.5c-2,11.3,8.8,13.8,8.8,13.8C33.7,20,22.9,17.5,22.9,17.5z"/>
			<path d="M46.6,22.3c-2.5,11.2-13.5,9.4-13.5,9.4C35.7,20.4,46.6,22.3,46.6,22.3z"/>
			<path d="M20.7,28.1c-2,11.3,8.8,13.8,8.8,13.8C31.5,30.6,20.7,28.1,20.7,28.1z"/>
			<path d="M44.5,32.9C42,44,31,42.2,31,42.2C33.5,31,44.5,32.9,44.5,32.9z"/>
			<path d="M18.7,38c-2,11.3,8.8,13.8,8.8,13.8C29.5,40.6,18.7,38,18.7,38z"/>
			<path d="M42.5,42.8C40,54,29,52.2,29,52.2C31.5,41,42.5,42.8,42.5,42.8z"/>
		</g>
	</g>
</g>
</svg>
